<svg width="175.244" height="73.682" viewBox="0 0 175.244 73.682" xmlns="http://www.w3.org/2000/svg"><g id="svgGroup" stroke-linecap="round" fill-rule="evenodd" font-size="9pt" stroke="#ffffff" stroke-width="0.25mm" fill="#e82276" style="stroke:#ffffff;stroke-width:0.25mm;fill:#e82276"><path d="M 128.125 18.945 L 128.125 17.188 Q 128.125 15.137 127.93 14.111 A 4.45 4.45 0 0 0 127.784 13.539 Q 127.586 12.945 127.246 12.622 A 2.168 2.168 0 0 0 126.363 12.119 A 2.803 2.803 0 0 0 126.001 12.036 Q 125.253 11.916 124.148 11.771 A 114.477 114.477 0 0 0 124.121 11.768 Q 123.567 11.682 122.994 11.262 A 4.161 4.161 0 0 1 122.827 11.133 A 7.383 7.383 0 0 1 121.821 10.131 A 8.432 8.432 0 0 1 121.607 9.863 A 8.343 8.343 0 0 1 120.786 8.568 A 7.611 7.611 0 0 1 120.679 8.35 A 4.579 4.579 0 0 1 120.456 7.784 Q 120.313 7.33 120.313 6.934 L 120.313 5.859 Q 120.313 3.929 120.885 2.881 A 3.061 3.061 0 0 1 120.899 2.856 Q 121.484 1.807 122.51 1.294 A 5.593 5.593 0 0 1 123.779 0.848 A 7.591 7.591 0 0 1 124.927 0.684 A 38.609 38.609 0 0 1 126.373 0.61 A 47.925 47.925 0 0 1 127.93 0.586 A 46.321 46.321 0 0 1 130.415 0.655 A 51.872 51.872 0 0 1 131.275 0.708 Q 133.008 0.83 134.619 1.245 A 10.959 10.959 0 0 1 136.958 2.132 A 9.939 9.939 0 0 1 137.549 2.466 A 6.384 6.384 0 0 1 139.697 4.639 A 14.007 14.007 0 0 1 140.625 6.567 A 42.82 42.82 0 0 1 141.358 8.594 A 293.01 293.01 0 0 0 142.041 10.62 A 10.82 10.82 0 0 0 142.92 12.549 A 3.728 3.728 0 0 1 143.286 13.501 L 143.53 14.526 A 14.376 14.376 0 0 0 143.745 15.327 A 12.744 12.744 0 0 0 143.799 15.503 A 3.475 3.475 0 0 0 144.134 16.241 A 3.991 3.991 0 0 0 144.238 16.406 A 8.186 8.186 0 0 0 144.611 16.803 A 10.751 10.751 0 0 0 145.044 17.212 A 3.336 3.336 0 0 1 145.496 17.702 A 2.742 2.742 0 0 1 145.752 18.115 Q 146.192 19.092 146.362 20.142 Q 146.533 21.191 146.68 22.241 A 93.397 93.397 0 0 0 146.997 24.341 Q 147.168 25.391 147.608 26.367 Q 147.832 26.816 148.042 27.15 A 5.638 5.638 0 0 0 148.169 27.344 A 15.318 15.318 0 0 1 148.515 27.869 A 13.087 13.087 0 0 1 148.657 28.101 A 4.507 4.507 0 0 1 148.907 28.583 A 5.623 5.623 0 0 1 149.048 28.931 Q 149.172 29.267 149.257 29.745 A 8.728 8.728 0 0 1 149.317 30.127 A 1017.537 1017.537 0 0 0 149.512 32.251 Q 149.609 33.301 150 34.326 Q 150.293 35.059 150.781 35.693 A 37.183 37.183 0 0 0 151.782 36.938 Q 152.295 37.549 152.783 38.184 A 4.508 4.508 0 0 1 153.516 39.6 Q 154.004 41.064 154.443 42.334 A 4.413 4.413 0 0 0 155.37 43.866 A 5.992 5.992 0 0 0 156.152 44.58 A 5.897 5.897 0 0 0 155.647 45.516 A 6.417 6.417 0 0 0 155.64 45.532 A 2.641 2.641 0 0 0 155.42 46.582 A 4.288 4.288 0 0 0 155.772 48.264 A 5.164 5.164 0 0 0 155.933 48.608 A 30.043 30.043 0 0 1 156.58 49.95 A 25.42 25.42 0 0 1 156.836 50.537 Q 157.11 51.221 157.404 51.734 A 6.63 6.63 0 0 0 157.446 51.807 A 1.933 1.933 0 0 0 157.829 52.263 Q 158.019 52.432 158.268 52.582 A 4.027 4.027 0 0 0 158.545 52.734 A 7.177 7.177 0 0 1 158.859 52.901 Q 159.164 53.072 159.345 53.223 A 1.3 1.3 0 0 1 159.473 53.345 A 1.249 1.249 0 0 1 159.667 53.623 A 1.029 1.029 0 0 1 159.766 53.931 A 2.745 2.745 0 0 1 159.792 54.182 Q 159.805 54.404 159.79 54.663 A 2.083 2.083 0 0 0 159.787 54.778 Q 159.785 55.163 159.912 55.713 Q 159.948 55.926 160.035 56.203 A 6.538 6.538 0 0 0 160.108 56.421 Q 160.254 56.836 160.474 57.251 A 3.173 3.173 0 0 0 160.76 57.701 A 2.634 2.634 0 0 0 160.986 57.959 A 1.149 1.149 0 0 0 161.203 58.132 A 0.796 0.796 0 0 0 161.621 58.252 Q 161.914 58.252 162.061 58.032 A 1.945 1.945 0 0 0 162.217 57.745 A 2.472 2.472 0 0 0 162.305 57.52 A 2.538 2.538 0 0 0 162.427 56.909 Q 162.449 56.625 162.451 56.439 A 3.443 3.443 0 0 0 162.451 56.396 A 2.231 2.231 0 0 1 162.817 55.151 A 2.263 2.263 0 0 0 163.176 54.06 A 2.794 2.794 0 0 0 163.184 53.857 A 3.256 3.256 0 0 0 163.003 52.763 A 3.022 3.022 0 0 0 162.817 52.344 A 3.123 3.123 0 0 1 162.454 50.959 A 3.688 3.688 0 0 1 162.451 50.83 A 3.016 3.016 0 0 1 162.556 50.023 A 2.65 2.65 0 0 1 162.72 49.585 A 2.768 2.768 0 0 0 162.979 48.592 A 3.316 3.316 0 0 0 162.988 48.34 A 1.087 1.087 0 0 0 162.656 47.542 A 1.373 1.373 0 0 0 162.622 47.51 A 1.588 1.588 0 0 1 162.439 47.309 Q 162.351 47.193 162.305 47.076 A 0.681 0.681 0 0 1 162.256 46.826 A 0.216 0.216 0 0 1 162.266 46.759 Q 162.294 46.673 162.402 46.655 Q 162.549 46.631 162.695 46.582 Q 162.841 46.534 162.986 46.413 A 1.407 1.407 0 0 0 162.988 46.411 A 0.333 0.333 0 0 0 163.078 46.289 Q 163.126 46.181 163.133 46.013 A 1.449 1.449 0 0 0 163.135 45.947 A 9.528 9.528 0 0 0 162.866 43.677 Q 162.598 42.578 162.256 41.455 Q 161.914 40.332 161.646 39.185 A 10.145 10.145 0 0 1 161.377 36.865 A 4.757 4.757 0 0 1 161.492 35.799 A 3.737 3.737 0 0 1 161.865 34.814 A 11.423 11.423 0 0 0 162.031 34.505 Q 162.354 33.881 162.354 33.643 A 2.177 2.177 0 0 0 162.175 32.759 A 2.11 2.11 0 0 0 162.036 32.495 Q 161.719 31.982 161.719 31.348 Q 161.719 30.615 162.085 29.956 Q 162.451 29.297 162.451 28.564 A 1.986 1.986 0 0 0 162.256 27.71 Q 162.061 27.295 161.817 26.855 Q 161.572 26.416 161.353 25.952 A 4.637 4.637 0 0 1 161.13 25.396 A 3.813 3.813 0 0 1 161.035 25.049 A 9.166 9.166 0 0 1 160.864 23.535 A 50.021 50.021 0 0 1 160.84 21.973 L 160.84 19.873 A 26.269 26.269 0 0 0 160.718 17.31 Q 160.596 16.064 160.254 14.795 A 13.239 13.239 0 0 1 160.027 13.705 Q 159.938 13.154 159.913 12.654 A 8.101 8.101 0 0 1 159.912 12.646 A 7.879 7.879 0 0 0 159.832 11.839 Q 159.767 11.418 159.657 11.055 A 4.663 4.663 0 0 0 159.619 10.938 A 2.28 2.28 0 0 0 158.775 9.8 A 2.843 2.843 0 0 0 158.692 9.741 A 2.339 2.339 0 0 0 158.178 9.487 Q 157.666 9.3 156.903 9.218 A 10.265 10.265 0 0 0 156.445 9.18 A 34.602 34.602 0 0 0 154.199 9.058 A 9.708 9.708 0 0 1 151.953 8.74 A 1.824 1.824 0 0 1 151.287 8.415 A 1.741 1.741 0 0 1 150.855 7.91 A 4.362 4.362 0 0 1 150.393 6.735 A 5.049 5.049 0 0 1 150.342 6.494 A 8.592 8.592 0 0 1 150.195 4.907 L 150.195 3.613 A 1.691 1.691 0 0 1 150.763 2.342 A 2.642 2.642 0 0 1 151.099 2.075 A 7.29 7.29 0 0 1 152.223 1.458 A 9.596 9.596 0 0 1 153.247 1.074 A 15.131 15.131 0 0 1 155.762 0.513 A 29.97 29.97 0 0 1 156.36 0.438 Q 157.202 0.342 157.715 0.342 A 13.293 13.293 0 0 1 157.973 0.345 Q 158.323 0.352 158.902 0.375 A 112.066 112.066 0 0 1 159.277 0.391 A 34.141 34.141 0 0 1 160.462 0.464 A 46.166 46.166 0 0 1 161.768 0.586 A 65.945 65.945 0 0 1 163.873 0.847 A 73.688 73.688 0 0 1 164.6 0.952 Q 166.065 1.172 167.285 1.538 Q 168.506 1.904 169.287 2.393 A 2.448 2.448 0 0 1 169.647 2.662 Q 170.068 3.049 170.068 3.516 A 4.719 4.719 0 0 1 171.045 2.686 A 2.196 2.196 0 0 1 172.139 2.347 A 2.655 2.655 0 0 1 172.266 2.344 A 2.144 2.144 0 0 1 173.427 2.687 A 2.567 2.567 0 0 1 173.462 2.71 Q 174.024 3.076 174.414 3.662 Q 174.805 4.248 175.025 4.907 A 4.485 4.485 0 0 1 175.193 5.568 A 3.462 3.462 0 0 1 175.244 6.152 Q 175.244 6.592 175.025 7.129 A 1.035 1.035 0 0 1 174.867 7.399 Q 174.657 7.654 174.303 7.665 A 1.043 1.043 0 0 1 174.268 7.666 A 0.406 0.406 0 0 1 174.05 7.601 Q 173.974 7.553 173.901 7.471 A 2.937 2.937 0 0 1 173.659 7.15 A 3.388 3.388 0 0 1 173.584 7.031 A 3.156 3.156 0 0 0 173.356 6.699 A 2.755 2.755 0 0 0 173.267 6.592 Q 173.096 6.396 172.9 6.348 A 20.205 20.205 0 0 1 172.915 6.68 Q 172.94 7.367 172.9 7.764 Q 172.862 8.149 172.793 8.367 A 1.002 1.002 0 0 1 172.754 8.472 Q 172.694 8.606 172.607 8.667 A 0.277 0.277 0 0 1 172.485 8.716 A 2.419 2.419 0 0 1 172.262 8.737 A 2.913 2.913 0 0 1 172.119 8.74 A 5.56 5.56 0 0 0 171.65 8.759 A 4.62 4.62 0 0 0 171.387 8.789 Q 171.045 8.838 170.703 8.936 A 45.404 45.404 0 0 1 170.177 9.047 Q 169.444 9.197 169.024 9.252 A 7.345 7.345 0 0 1 169.019 9.253 A 2.44 2.44 0 0 0 168.728 9.308 Q 168.408 9.39 168.234 9.55 A 0.704 0.704 0 0 0 168.213 9.57 Q 167.969 9.814 167.92 10.352 Q 167.873 10.869 167.781 11.974 A 647.566 647.566 0 0 0 167.774 12.061 Q 167.676 12.939 167.627 13.794 A 30.382 30.382 0 0 0 167.578 15.527 A 47.125 47.125 0 0 0 167.798 20.117 A 47.125 47.125 0 0 1 168.018 24.707 A 13.965 13.965 0 0 1 167.847 26.904 A 13.965 13.965 0 0 0 167.676 29.102 A 4.753 4.753 0 0 0 168.041 30.911 A 5.46 5.46 0 0 0 168.091 31.03 A 5.478 5.478 0 0 1 168.375 31.84 Q 168.496 32.306 168.505 32.739 A 3.353 3.353 0 0 1 168.506 32.813 A 0.706 0.706 0 0 1 168.406 33.172 A 0.933 0.933 0 0 1 168.335 33.276 A 7.494 7.494 0 0 1 168.152 33.502 A 9.603 9.603 0 0 1 167.944 33.74 A 3.242 3.242 0 0 0 167.554 34.277 A 1.248 1.248 0 0 0 167.398 34.738 A 1.607 1.607 0 0 0 167.383 34.961 Q 167.383 35.986 167.749 36.938 A 5.462 5.462 0 0 1 168.115 38.916 A 25.171 25.171 0 0 1 167.92 42.041 A 205.319 205.319 0 0 1 167.505 45.166 A 205.319 205.319 0 0 0 167.09 48.291 A 25.171 25.171 0 0 0 166.895 51.416 A 16.971 16.971 0 0 0 166.991 53.252 A 14.852 14.852 0 0 0 167.066 53.833 Q 167.236 54.98 167.676 56.104 A 8.655 8.655 0 0 1 167.774 56.36 A 11.014 11.014 0 0 1 167.871 56.641 Q 167.962 56.913 167.968 57.143 A 1.247 1.247 0 0 1 167.969 57.178 A 2.089 2.089 0 0 1 167.918 57.649 A 1.493 1.493 0 0 1 167.651 58.228 A 2.429 2.429 0 0 0 167.502 58.445 Q 167.363 58.675 167.339 58.861 A 0.588 0.588 0 0 0 167.334 58.936 A 0.488 0.488 0 0 0 167.37 59.111 Q 167.441 59.295 167.651 59.521 A 2.777 2.777 0 0 1 167.84 59.746 Q 168.002 59.962 168.067 60.156 A 15.403 15.403 0 0 1 168.429 61.607 A 19.154 19.154 0 0 1 168.604 62.622 A 19.166 19.166 0 0 1 168.767 64.156 A 15.375 15.375 0 0 1 168.799 65.137 A 4.028 4.028 0 0 1 168.395 66.878 A 4.843 4.843 0 0 1 168.262 67.139 Q 167.725 68.115 166.846 68.872 A 7.972 7.972 0 0 1 164.868 70.117 A 5.565 5.565 0 0 1 163.207 70.575 A 5.151 5.151 0 0 1 162.647 70.605 A 4.097 4.097 0 0 1 161.289 70.388 A 3.594 3.594 0 0 1 160.083 69.678 A 8.41 8.41 0 0 1 158.622 67.975 A 9.898 9.898 0 0 1 158.276 67.407 A 26.358 26.358 0 0 1 156.909 64.6 Q 156.385 63.341 155.878 62.37 A 19.21 19.21 0 0 0 155.713 62.061 A 11.235 11.235 0 0 1 155.245 61.121 A 8.714 8.714 0 0 1 154.956 60.376 A 45.472 45.472 0 0 0 154.395 58.789 Q 154.102 58.008 153.662 57.251 A 5.765 5.765 0 0 0 153.099 56.454 A 7.836 7.836 0 0 0 152.442 55.762 A 3.994 3.994 0 0 1 151.465 54.37 A 10.999 10.999 0 0 1 150.931 52.774 A 12.119 12.119 0 0 1 150.903 52.661 Q 150.684 51.758 150.513 50.854 A 32.118 32.118 0 0 0 150.29 49.773 A 26.303 26.303 0 0 0 150.147 49.17 A 39.263 39.263 0 0 0 148.877 45.41 A 172.915 172.915 0 0 1 147.461 41.699 A 17.165 17.165 0 0 0 147.224 41.158 Q 147.099 40.884 146.951 40.584 A 29.262 29.262 0 0 0 146.851 40.381 A 62.671 62.671 0 0 0 146.094 38.916 A 29.809 29.809 0 0 1 145.56 37.867 A 25.767 25.767 0 0 1 145.386 37.5 A 4.726 4.726 0 0 1 145.163 36.931 Q 145.047 36.565 145.02 36.23 A 9.69 9.69 0 0 0 144.618 34.385 A 8.139 8.139 0 0 0 144.19 33.325 A 27.503 27.503 0 0 0 142.822 30.859 Q 142.09 29.688 141.406 28.467 A 8 8 0 0 1 140.591 26.313 A 9.396 9.396 0 0 1 140.479 25.732 A 8.246 8.246 0 0 0 140.403 25.396 Q 140.305 24.992 140.137 24.438 A 10.949 10.949 0 0 0 139.553 22.934 A 12.078 12.078 0 0 0 139.502 22.827 A 6.174 6.174 0 0 0 138.957 21.906 A 5.182 5.182 0 0 0 138.574 21.436 Q 138.196 21.023 137.794 20.901 A 1.174 1.174 0 0 0 137.451 20.85 A 0.921 0.921 0 0 0 136.724 21.188 A 1.379 1.379 0 0 0 136.597 21.362 Q 136.279 21.875 136.084 22.583 A 8.674 8.674 0 0 0 135.816 23.999 A 23.501 23.501 0 0 0 135.783 24.33 Q 135.743 24.781 135.742 25.036 A 3.293 3.293 0 0 0 135.742 25.049 A 15.732 15.732 0 0 0 135.864 27.002 A 15.732 15.732 0 0 1 135.986 28.955 A 3.56 3.56 0 0 1 135.693 30.371 A 3.591 3.591 0 0 0 135.429 31.311 A 3.215 3.215 0 0 0 135.4 31.738 A 0.995 0.995 0 0 0 135.489 32.162 A 0.98 0.98 0 0 0 135.718 32.471 Q 136.035 32.764 136.035 33.154 A 2.925 2.925 0 0 1 135.938 33.911 Q 135.84 34.277 135.84 34.668 A 23.082 23.082 0 0 0 135.962 37.061 A 22.607 22.607 0 0 1 136.084 39.404 A 14.828 14.828 0 0 1 135.986 41.089 A 6.336 6.336 0 0 1 135.734 42.29 A 5.614 5.614 0 0 1 135.596 42.676 A 3.218 3.218 0 0 1 134.717 43.921 A 2.64 2.64 0 0 1 133.851 44.419 A 3.623 3.623 0 0 1 133.203 44.58 A 1.346 1.346 0 0 0 133.352 44.817 Q 133.466 44.961 133.609 45.042 A 0.783 0.783 0 0 0 133.716 45.093 A 3.02 3.02 0 0 0 134.375 45.264 A 3.236 3.236 0 0 1 134.651 45.315 Q 134.784 45.346 134.899 45.387 A 1.784 1.784 0 0 1 134.961 45.41 A 0.336 0.336 0 0 1 135.143 45.591 Q 135.205 45.726 135.205 45.947 A 4.104 4.104 0 0 1 135.202 46.12 Q 135.198 46.205 135.191 46.278 A 1.981 1.981 0 0 1 135.181 46.362 A 2.419 2.419 0 0 0 135.16 46.585 A 2.913 2.913 0 0 0 135.156 46.729 A 2.152 2.152 0 0 0 135.187 47.1 Q 135.223 47.308 135.303 47.477 A 1.18 1.18 0 0 0 135.376 47.607 A 4.769 4.769 0 0 0 135.852 48.227 A 5.264 5.264 0 0 0 135.889 48.267 A 6.178 6.178 0 0 1 136.249 48.693 A 5.222 5.222 0 0 1 136.401 48.901 A 1.186 1.186 0 0 1 136.579 49.312 Q 136.616 49.471 136.621 49.654 A 2.109 2.109 0 0 1 136.621 49.707 A 4.25 4.25 0 0 1 136.475 50.83 A 4.067 4.067 0 0 0 136.328 51.904 A 8.774 8.774 0 0 0 136.621 54.175 Q 136.914 55.273 136.914 56.445 Q 136.914 57.08 136.792 57.349 A 1.524 1.524 0 0 1 136.686 57.545 Q 136.621 57.645 136.546 57.72 A 0.849 0.849 0 0 1 136.499 57.764 A 3.543 3.543 0 0 1 136.397 57.848 Q 136.344 57.89 136.296 57.924 A 1.419 1.419 0 0 1 136.206 57.983 Q 136.084 58.057 136.084 58.35 A 2.854 2.854 0 0 0 136.146 58.952 A 2.46 2.46 0 0 0 136.231 59.253 A 2.59 2.59 0 0 1 136.368 59.917 A 3.083 3.083 0 0 1 136.377 60.156 Q 136.377 60.449 136.304 60.742 A 1.085 1.085 0 0 1 136.11 61.138 A 1.388 1.388 0 0 1 135.986 61.279 A 1.703 1.703 0 0 0 136.041 61.597 Q 136.09 61.772 136.178 61.903 A 0.795 0.795 0 0 0 136.377 62.109 A 3.69 3.69 0 0 0 136.797 62.367 A 4.85 4.85 0 0 0 137.183 62.549 Q 137.647 62.744 138.086 62.964 A 1.36 1.36 0 0 1 138.588 63.402 A 1.909 1.909 0 0 1 138.77 63.721 A 7.948 7.948 0 0 0 139.023 64.241 A 6.651 6.651 0 0 0 139.185 64.526 A 0.718 0.718 0 0 0 139.651 64.86 Q 139.78 64.892 139.937 64.893 A 1.546 1.546 0 0 0 139.942 64.893 A 3.256 3.256 0 0 0 141.036 64.712 A 3.022 3.022 0 0 0 141.455 64.526 A 3.055 3.055 0 0 1 142.92 64.16 A 2.484 2.484 0 0 1 143.605 64.248 A 1.66 1.66 0 0 1 144.678 65.161 A 4.679 4.679 0 0 1 145.166 67.236 A 6.421 6.421 0 0 1 145.137 67.87 Q 145.05 68.744 144.702 69.165 A 3.459 3.459 0 0 1 144.214 69.653 A 2.714 2.714 0 0 1 143.677 69.995 Q 143.115 70.264 142.651 70.508 A 0.818 0.818 0 0 0 142.235 71.043 Q 142.194 71.195 142.188 71.382 A 1.939 1.939 0 0 0 142.188 71.436 Q 142.188 71.522 142.207 71.57 A 0.151 0.151 0 0 0 142.212 71.582 Q 142.236 71.631 142.236 71.729 Q 141.553 71.289 140.796 71.094 Q 140.039 70.898 139.209 70.898 A 10.445 10.445 0 0 0 136.304 71.313 A 10.445 10.445 0 0 1 133.399 71.729 A 11.197 11.197 0 0 1 131.299 71.533 A 11.197 11.197 0 0 0 129.199 71.338 A 5.329 5.329 0 0 0 127.857 71.509 A 5.329 5.329 0 0 1 126.514 71.68 A 3.944 3.944 0 0 1 126.044 71.649 Q 125.479 71.581 124.707 71.362 A 13.82 13.82 0 0 1 122.51 70.532 A 10.813 10.813 0 0 1 121.522 70 A 7.967 7.967 0 0 1 120.679 69.409 Q 120.048 68.9 119.943 68.442 A 0.807 0.807 0 0 1 119.922 68.262 A 4.097 4.097 0 0 1 120.868 65.638 A 5.117 5.117 0 0 1 120.899 65.601 A 3.894 3.894 0 0 1 123.34 64.16 A 7.319 7.319 0 0 1 124.166 64.046 A 9.746 9.746 0 0 1 124.976 64.014 Q 125.879 64.014 126.758 63.94 A 6.917 6.917 0 0 0 128.215 63.665 A 6.352 6.352 0 0 0 128.418 63.599 A 2.815 2.815 0 0 0 129.728 62.657 A 3.344 3.344 0 0 0 129.736 62.646 A 5.599 5.599 0 0 1 129.584 61.813 A 7.604 7.604 0 0 1 129.541 60.986 A 12.562 12.562 0 0 1 129.981 57.666 A 12.562 12.562 0 0 0 130.42 54.346 A 7.007 7.007 0 0 0 130.331 53.248 A 8.052 8.052 0 0 0 130.274 52.93 A 39.539 39.539 0 0 1 129.688 46.143 A 40.587 40.587 0 0 1 129.736 44.165 A 40.587 40.587 0 0 0 129.785 42.188 Q 129.785 39.648 129.419 37.158 A 46.942 46.942 0 0 1 128.955 32.129 Q 128.858 29.443 128.858 26.831 Q 128.858 24.219 128.32 21.582 A 8.028 8.028 0 0 1 128.173 20.625 A 6.969 6.969 0 0 1 128.15 20.264 Q 128.125 19.629 128.125 18.945 Z M 15.137 70.313 L 8.643 70.313 A 0.219 0.219 0 0 0 8.556 70.333 Q 8.438 70.385 8.265 70.565 A 2.699 2.699 0 0 0 8.228 70.605 A 1.01 1.01 0 0 1 8.016 70.784 A 0.744 0.744 0 0 1 7.617 70.898 A 5.137 5.137 0 0 1 7.251 70.884 Q 6.813 70.853 6.226 70.752 A 7.936 7.936 0 0 1 4.541 70.264 A 5.839 5.839 0 0 1 3.6 69.777 A 4.903 4.903 0 0 1 3.101 69.409 A 1.942 1.942 0 0 1 2.742 69.02 A 1.402 1.402 0 0 1 2.49 68.213 Q 2.49 67.969 2.539 67.798 A 3.891 3.891 0 0 0 2.576 67.659 Q 2.595 67.582 2.614 67.493 A 7.784 7.784 0 0 0 2.637 67.383 A 6.437 6.437 0 0 1 2.997 66.485 Q 3.232 66.013 3.526 65.656 A 3.317 3.317 0 0 1 3.858 65.308 A 9.446 9.446 0 0 1 5.542 64.087 A 812.644 812.644 0 0 1 7.398 63.037 A 5.439 5.439 0 0 0 8.665 62.038 A 6.689 6.689 0 0 0 9.107 61.523 A 5.926 5.926 0 0 0 9.697 60.578 Q 10.069 59.846 10.352 58.887 A 10.033 10.033 0 0 0 10.63 57.613 Q 10.735 56.941 10.787 56.149 A 25.847 25.847 0 0 0 10.84 54.443 A 39.74 39.74 0 0 0 10.523 49.414 A 39.74 39.74 0 0 1 10.205 44.385 Q 10.254 39.697 10.425 35.107 Q 10.596 30.518 10.645 25.83 L 10.693 18.164 Q 10.693 16.943 10.62 15.332 A 13.856 13.856 0 0 0 10.132 12.231 A 7.01 7.01 0 0 0 9.472 10.627 A 5.976 5.976 0 0 0 8.814 9.692 A 3.327 3.327 0 0 0 7.191 8.669 A 4.821 4.821 0 0 0 6.25 8.496 Q 5.57 8.456 4.726 8.187 A 10.116 10.116 0 0 1 4.346 8.057 A 8.876 8.876 0 0 1 2.319 7.007 A 8.182 8.182 0 0 1 0.972 5.848 A 7.412 7.412 0 0 1 0.684 5.518 A 3.094 3.094 0 0 1 0.183 4.683 A 2.634 2.634 0 0 1 0 3.711 A 2.328 2.328 0 0 1 0.1 3.015 A 1.92 1.92 0 0 1 0.488 2.319 Q 0.977 1.758 1.66 1.392 A 5.559 5.559 0 0 1 3.049 0.877 A 6.212 6.212 0 0 1 3.15 0.854 Q 3.955 0.684 4.639 0.684 A 14.95 14.95 0 0 1 7.715 1.001 A 15.189 15.189 0 0 0 10.84 1.318 A 41.966 41.966 0 0 0 14.868 1.123 A 108.822 108.822 0 0 0 18.897 0.659 Q 20.899 0.391 22.925 0.195 Q 24.951 0 27.002 0 A 47.958 47.958 0 0 1 30.42 0.122 Q 32.129 0.244 33.838 0.342 A 1.343 1.343 0 0 0 34.13 0.622 Q 34.414 0.827 34.863 0.977 A 15.842 15.842 0 0 0 35.827 1.263 A 19.157 19.157 0 0 0 36.45 1.416 Q 37.305 1.611 38.135 1.733 A 35.969 35.969 0 0 1 38.525 1.793 Q 38.946 1.859 39.238 1.918 A 8.27 8.27 0 0 1 39.404 1.953 A 27.9 27.9 0 0 1 40.239 2.14 Q 40.691 2.249 41.085 2.362 A 14.899 14.899 0 0 1 41.431 2.466 A 5.331 5.331 0 0 1 42.27 2.806 A 4.212 4.212 0 0 1 42.896 3.198 A 4.268 4.268 0 0 1 43.681 3.983 A 5.222 5.222 0 0 1 43.97 4.395 A 6.263 6.263 0 0 1 44.307 5.006 Q 44.476 5.352 44.633 5.763 A 13.034 13.034 0 0 1 44.824 6.299 Q 44.867 6.426 45.185 6.664 A 4.838 4.838 0 0 0 45.288 6.738 A 8.477 8.477 0 0 0 45.734 7.031 A 11.204 11.204 0 0 0 46.24 7.324 A 29.566 29.566 0 0 1 47.019 7.764 A 26.531 26.531 0 0 1 47.266 7.91 A 7.877 7.877 0 0 1 47.492 8.051 Q 47.716 8.196 47.854 8.312 A 1.493 1.493 0 0 1 47.949 8.398 A 4.723 4.723 0 0 1 48.389 8.913 Q 48.807 9.474 49.236 10.314 A 14.832 14.832 0 0 1 49.243 10.327 A 24.753 24.753 0 0 1 50.286 12.677 A 27.629 27.629 0 0 1 50.44 13.086 A 26.639 26.639 0 0 1 51.23 15.612 A 24.079 24.079 0 0 1 51.318 15.967 Q 51.645 17.318 51.66 18.18 A 4.712 4.712 0 0 1 51.66 18.262 A 13.181 13.181 0 0 1 51.148 21.875 A 131.103 131.103 0 0 1 50.098 25.391 A 7.405 7.405 0 0 1 49.097 27.344 A 76.702 76.702 0 0 0 47.803 29.224 A 15.438 15.438 0 0 0 46.763 31.03 A 14.242 14.242 0 0 0 46.704 31.152 A 4.723 4.723 0 0 0 46.24 33.203 A 7.615 7.615 0 0 0 46.692 35.757 A 8.898 8.898 0 0 0 46.875 36.23 A 17.709 17.709 0 0 0 48.011 38.488 A 15.805 15.805 0 0 0 48.34 39.014 A 7.498 7.498 0 0 0 49.146 40.137 A 60.703 60.703 0 0 0 50.073 41.187 Q 50.537 41.699 50.928 42.261 A 6.838 6.838 0 0 1 51.498 43.254 A 7.808 7.808 0 0 1 51.611 43.506 A 12.373 12.373 0 0 1 52.442 46.753 A 29.021 29.021 0 0 1 52.637 50.098 A 12.051 12.051 0 0 0 52.638 50.282 Q 52.643 50.58 52.661 51.001 Q 52.686 51.563 52.661 52.124 A 10.468 10.468 0 0 1 52.625 52.661 A 7.994 7.994 0 0 1 52.564 53.149 A 2.165 2.165 0 0 1 52.513 53.389 Q 52.435 53.668 52.295 53.809 A 2.495 2.495 0 0 1 51.93 54.113 Q 51.657 54.298 51.367 54.37 A 5.121 5.121 0 0 1 50.366 54.517 Q 49.854 54.541 49.341 54.614 A 2.592 2.592 0 0 0 48.532 54.874 A 3.083 3.083 0 0 0 48.34 54.98 A 1.148 1.148 0 0 0 48.416 55.226 Q 48.541 55.503 48.804 55.591 A 5.324 5.324 0 0 0 49.406 55.752 A 6.09 6.09 0 0 0 49.585 55.786 A 1.917 1.917 0 0 1 50.088 55.945 A 1.704 1.704 0 0 1 50.317 56.079 A 0.634 0.634 0 0 1 50.534 56.351 Q 50.635 56.577 50.635 56.934 A 5.459 5.459 0 0 1 50.594 57.623 Q 50.548 57.979 50.453 58.277 A 2.667 2.667 0 0 1 50.317 58.618 A 5.531 5.531 0 0 1 49.773 59.525 A 4.947 4.947 0 0 1 49.561 59.79 A 59.804 59.804 0 0 0 48.682 60.84 A 3.296 3.296 0 0 0 48.27 61.493 Q 48.122 61.798 48.013 62.159 A 5.484 5.484 0 0 0 47.998 62.207 A 4.719 4.719 0 0 1 47.801 62.709 Q 47.568 63.208 47.266 63.477 A 3.513 3.513 0 0 1 46.33 64.08 A 3.325 3.325 0 0 1 46.314 64.087 A 52.696 52.696 0 0 0 45.297 64.536 A 58.693 58.693 0 0 0 45.264 64.551 Q 44.808 64.758 44.388 65.246 A 4.279 4.279 0 0 0 44.238 65.43 A 3.939 3.939 0 0 1 44.013 65.658 Q 43.629 66.013 43.363 66.016 A 0.404 0.404 0 0 1 43.359 66.016 Q 43.246 66.016 43.102 65.986 A 2.066 2.066 0 0 1 43.018 65.967 A 1.433 1.433 0 0 0 42.857 65.937 Q 42.771 65.926 42.672 65.921 A 3.089 3.089 0 0 0 42.529 65.918 A 0.706 0.706 0 0 0 42.17 66.018 A 0.933 0.933 0 0 0 42.066 66.089 Q 41.846 66.26 41.846 66.504 Q 41.846 66.581 41.907 66.597 A 0.144 0.144 0 0 0 41.943 66.602 Q 42.041 66.602 41.992 66.65 A 3.764 3.764 0 0 1 41.593 66.964 Q 41.138 67.278 40.416 67.642 A 20.092 20.092 0 0 1 39.893 67.896 A 23.813 23.813 0 0 1 38.269 68.579 A 32.275 32.275 0 0 1 36.426 69.214 A 38.16 38.16 0 0 1 32.481 70.213 A 41.607 41.607 0 0 1 32.349 70.239 A 22.619 22.619 0 0 1 29.78 70.596 A 18.683 18.683 0 0 1 28.32 70.654 Q 25 70.654 21.753 70.483 Q 18.506 70.313 15.137 70.313 Z M 62.695 44.971 L 62.695 44.434 A 0.631 0.631 0 0 0 62.669 44.26 Q 62.634 44.135 62.549 43.994 A 4.659 4.659 0 0 0 62.232 43.53 A 4.565 4.565 0 0 0 62.029 43.287 A 3.691 3.691 0 0 0 61.89 43.14 A 2.628 2.628 0 0 0 61.83 43.082 Q 61.71 42.969 61.67 42.969 Q 61.612 42.969 61.588 42.986 A 0.037 0.037 0 0 0 61.572 43.018 Q 61.609 42.684 61.745 42.082 A 25.139 25.139 0 0 1 61.841 41.675 A 31.755 31.755 0 0 1 62.282 40.057 A 35.214 35.214 0 0 1 62.354 39.819 A 41.382 41.382 0 0 1 62.647 38.904 A 33.041 33.041 0 0 1 62.94 38.062 A 7.977 7.977 0 0 1 63.074 37.715 Q 63.284 37.213 63.466 37.023 A 0.685 0.685 0 0 1 63.477 37.012 A 8.386 8.386 0 0 0 64.038 36.499 A 0.901 0.901 0 0 0 64.292 35.988 A 1.262 1.262 0 0 0 64.307 35.791 A 7.31 7.31 0 0 0 64.258 34.937 A 7.31 7.31 0 0 1 64.209 34.082 A 3.643 3.643 0 0 1 64.215 33.863 Q 64.234 33.546 64.315 33.421 A 0.209 0.209 0 0 1 64.356 33.374 A 0.504 0.504 0 0 1 64.558 33.274 Q 64.643 33.252 64.746 33.252 Q 64.99 33.252 65.234 33.179 A 0.485 0.485 0 0 0 65.395 33.091 Q 65.522 32.99 65.65 32.789 A 2.457 2.457 0 0 0 65.723 32.666 A 52.449 52.449 0 0 1 66.263 31.615 A 43.133 43.133 0 0 1 66.577 31.03 A 11.002 11.002 0 0 1 67.3 29.881 A 9.864 9.864 0 0 1 67.481 29.639 Q 67.969 29.004 68.604 28.467 Q 69.198 27.964 70.05 27.504 A 11.975 11.975 0 0 1 70.166 27.441 A 9.759 9.759 0 0 0 71.324 26.672 A 11.339 11.339 0 0 0 71.704 26.367 Q 72.461 25.732 73.242 25.098 A 10.878 10.878 0 0 1 74.403 24.271 A 9.499 9.499 0 0 1 74.829 24.023 A 3.564 3.564 0 0 1 76.563 23.584 Q 77.881 23.584 79.126 23.12 Q 80.371 22.656 81.641 22.412 Q 83.643 22.119 85.62 21.851 A 29.904 29.904 0 0 1 89.649 21.582 A 8.748 8.748 0 0 1 90.559 21.634 Q 91.019 21.682 91.538 21.775 A 19.049 19.049 0 0 1 92.383 21.948 Q 93.994 22.314 95.679 22.9 A 28.589 28.589 0 0 1 98.382 23.993 A 25.714 25.714 0 0 1 98.853 24.219 Q 100.342 24.951 101.221 25.684 L 101.221 25.83 Q 101.221 26.514 100.977 27.222 Q 100.733 27.93 100.733 28.613 L 100.733 28.809 Q 100.733 28.886 100.794 28.902 A 0.144 0.144 0 0 0 100.83 28.906 Q 101.66 28.906 102.417 28.687 A 5.663 5.663 0 0 1 104.004 28.467 A 1.833 1.833 0 0 0 104.113 28.923 A 1.181 1.181 0 0 0 104.736 29.59 Q 105.371 29.883 106.006 30.127 Q 106.592 30.42 107.105 31.177 A 11.141 11.141 0 0 1 107.717 32.199 A 13.706 13.706 0 0 1 108.057 32.886 Q 108.496 33.838 108.911 34.766 A 14.657 14.657 0 0 0 109.219 35.413 Q 109.374 35.718 109.525 35.973 A 6.82 6.82 0 0 0 109.717 36.279 Q 110.104 36.861 110.42 37.658 A 9.814 9.814 0 0 1 110.425 37.671 Q 110.742 38.477 110.962 39.355 Q 111.182 40.234 111.279 41.089 A 15.592 15.592 0 0 1 111.358 42.012 A 12.245 12.245 0 0 1 111.377 42.676 Q 111.377 43.52 111.103 44.127 A 2.471 2.471 0 0 1 111.011 44.312 A 7.465 7.465 0 0 1 110.486 45.131 A 6.34 6.34 0 0 1 110.205 45.483 A 33.932 33.932 0 0 0 109.684 46.105 A 27.751 27.751 0 0 0 109.4 46.46 A 1.65 1.65 0 0 0 109.033 47.51 A 1.399 1.399 0 0 0 109.18 48.145 A 2.06 2.06 0 0 0 109.569 48.68 A 2.143 2.143 0 0 0 109.57 48.682 A 0.433 0.433 0 0 1 109.628 48.659 Q 109.724 48.628 109.909 48.596 A 5.414 5.414 0 0 1 109.985 48.584 A 0.638 0.638 0 0 0 110.109 48.553 Q 110.299 48.483 110.303 48.299 A 0.368 0.368 0 0 0 110.303 48.291 L 110.303 48.242 A 0.975 0.975 0 0 0 110.146 47.717 A 1.39 1.39 0 0 0 109.985 47.51 A 1.176 1.176 0 0 1 109.668 46.68 A 0.306 0.306 0 0 1 109.674 46.623 Q 109.692 46.531 109.759 46.377 A 2.83 2.83 0 0 1 109.766 46.362 Q 109.853 46.166 109.979 46.145 A 0.187 0.187 0 0 1 110.01 46.143 A 0.53 0.53 0 0 1 110.266 46.213 Q 110.431 46.303 110.596 46.509 A 9.582 9.582 0 0 1 111.157 47.29 A 11.167 11.167 0 0 1 111.335 47.573 Q 111.479 47.81 111.572 47.998 Q 111.719 48.291 111.719 48.193 L 111.67 48.145 Q 111.719 48.389 111.743 48.56 A 2.419 2.419 0 0 1 111.764 48.783 A 2.913 2.913 0 0 1 111.768 48.926 Q 111.768 49.609 111.548 50.22 A 6.918 6.918 0 0 1 111.331 50.754 Q 111.218 51.001 111.095 51.21 A 4.153 4.153 0 0 1 111.06 51.27 Q 110.854 51.606 110.677 51.857 A 6.301 6.301 0 0 1 110.571 52.002 A 7.696 7.696 0 0 0 110.52 52.071 Q 110.352 52.301 110.352 52.344 Q 110.352 52.803 110.632 53.304 A 3.043 3.043 0 0 0 110.669 53.369 A 2.262 2.262 0 0 1 110.986 54.541 A 0.599 0.599 0 0 1 110.97 54.687 A 0.346 0.346 0 0 1 110.767 54.932 Q 110.547 55.029 110.303 55.029 Q 109.863 55.029 109.57 54.932 Q 109.619 55.859 109.741 56.738 A 13.121 13.121 0 0 1 109.863 58.545 A 11.72 11.72 0 0 1 109.851 59.117 Q 109.805 60.052 109.595 60.376 Q 109.326 60.791 109.033 60.889 Q 108.74 60.986 108.472 61.108 A 0.316 0.316 0 0 0 108.332 61.247 Q 108.215 61.45 108.204 61.912 A 4.177 4.177 0 0 0 108.203 62.012 A 0.863 0.863 0 0 1 108.144 62.308 Q 108.049 62.566 107.801 62.886 A 4.762 4.762 0 0 1 107.593 63.135 A 10.697 10.697 0 0 1 106.841 63.893 A 13.966 13.966 0 0 1 106.128 64.502 A 11.93 11.93 0 0 1 104.595 65.549 A 10.913 10.913 0 0 1 104.37 65.674 Q 103.611 66.084 103.111 66.15 A 1.396 1.396 0 0 1 102.93 66.162 A 0.544 0.544 0 0 1 102.808 66.147 Q 102.707 66.124 102.588 66.064 A 7.026 7.026 0 0 0 102.607 66.572 A 8.461 8.461 0 0 0 102.637 66.895 Q 102.686 67.334 102.686 67.725 A 1.594 1.594 0 0 1 102.658 68.03 Q 102.583 68.417 102.295 68.579 A 6.663 6.663 0 0 1 101.825 68.819 A 8.469 8.469 0 0 1 101.416 68.994 Q 100.684 69.336 99.902 69.995 A 175.9 175.9 0 0 1 98.291 71.338 A 14.222 14.222 0 0 1 96.926 72.336 A 12.725 12.725 0 0 1 96.607 72.534 A 3.568 3.568 0 0 1 95.482 72.981 A 3.274 3.274 0 0 1 94.824 73.047 A 2.774 2.774 0 0 1 93.384 72.656 Q 92.725 72.266 91.846 72.266 A 4.623 4.623 0 0 0 91.273 72.299 Q 90.979 72.336 90.73 72.413 A 2.441 2.441 0 0 0 90.527 72.485 A 8.355 8.355 0 0 0 89.707 72.873 A 7.433 7.433 0 0 0 89.526 72.974 A 10.494 10.494 0 0 1 88.574 73.462 A 2.458 2.458 0 0 1 87.916 73.649 A 3.229 3.229 0 0 1 87.451 73.682 A 5.214 5.214 0 0 1 85.549 73.312 A 6.482 6.482 0 0 1 84.912 73.022 A 18.691 18.691 0 0 0 83.515 72.366 A 14.992 14.992 0 0 0 82.471 71.973 A 7.826 7.826 0 0 0 81.319 71.661 A 8.948 8.948 0 0 0 81.006 71.606 Q 80.225 71.484 79.492 71.338 Q 78.76 71.191 78.101 70.874 Q 77.442 70.557 76.953 69.971 Q 75.928 68.701 74.561 67.871 Q 73.193 67.041 71.777 66.309 Q 70.361 65.576 69.043 64.771 A 8.069 8.069 0 0 1 66.84 62.769 A 9.205 9.205 0 0 1 66.748 62.646 Q 66.016 61.621 65.088 60.425 Q 64.16 59.229 63.355 57.91 Q 62.549 56.592 62.012 55.225 A 7.799 7.799 0 0 1 61.551 53.54 A 6.675 6.675 0 0 1 61.475 52.539 A 9.219 9.219 0 0 1 61.67 50.635 A 99.752 99.752 0 0 1 62.085 48.755 A 99.752 99.752 0 0 0 62.5 46.875 A 9.219 9.219 0 0 0 62.695 44.971 Z M 102.588 47.266 L 102.588 46.777 A 10.615 10.615 0 0 0 102.54 45.806 Q 102.495 45.317 102.408 44.771 A 20.202 20.202 0 0 0 102.319 44.263 A 41.611 41.611 0 0 0 101.66 41.333 A 76.902 76.902 0 0 0 100.83 38.403 A 84.802 84.802 0 0 0 100.429 37.123 Q 100.208 36.436 100 35.84 Q 99.609 34.717 99.365 34.033 L 99.121 33.35 Q 98.748 33.443 98.509 33.447 A 1.271 1.271 0 0 1 98.486 33.447 A 3.392 3.392 0 0 1 97.762 33.373 A 2.584 2.584 0 0 1 97.046 33.105 A 39.561 39.561 0 0 0 96.399 32.751 A 53.12 53.12 0 0 0 95.679 32.373 A 8.894 8.894 0 0 0 94.979 32.052 Q 94.605 31.898 94.172 31.753 A 16.716 16.716 0 0 0 93.823 31.641 Q 93.085 31.411 92.027 31.336 A 15.66 15.66 0 0 0 90.918 31.299 Q 88.916 31.299 86.963 31.03 Q 85.01 30.762 83.008 30.762 A 10.945 10.945 0 0 0 77.881 32.007 A 14.633 14.633 0 0 0 73.682 35.278 A 15.566 15.566 0 0 0 70.85 39.844 Q 69.824 42.383 69.824 44.971 A 56.876 56.876 0 0 0 69.831 45.828 Q 69.843 46.585 69.873 47.485 Q 69.922 48.926 70.117 50.366 A 14.067 14.067 0 0 0 70.524 52.336 A 12.224 12.224 0 0 0 70.752 53.052 Q 71.114 54.078 71.709 54.69 A 3.052 3.052 0 0 0 71.973 54.932 L 71.973 56.299 Q 72.168 56.494 72.485 56.519 A 8.273 8.273 0 0 0 73.12 56.543 A 2.34 2.34 0 0 1 73.402 56.559 Q 73.552 56.577 73.682 56.616 A 0.496 0.496 0 0 1 73.901 56.757 Q 73.962 56.821 74.014 56.913 A 1.208 1.208 0 0 1 74.072 57.031 A 9.264 9.264 0 0 0 74.591 58.243 Q 74.914 58.863 75.305 59.335 A 4.736 4.736 0 0 0 75.733 59.79 A 11.536 11.536 0 0 0 77.93 61.401 L 80.274 62.72 A 6.461 6.461 0 0 1 81.596 63.718 A 8.517 8.517 0 0 1 82.422 64.648 Q 82.813 64.6 83.252 64.575 A 16.041 16.041 0 0 1 83.782 64.554 A 13.401 13.401 0 0 1 84.082 64.551 Q 85.645 64.551 87.134 64.771 A 20.546 20.546 0 0 0 90.137 64.99 A 5.266 5.266 0 0 0 93.042 64.16 Q 94.336 63.33 95.264 62.061 A 29.263 29.263 0 0 1 95.689 61.472 Q 96.033 61.011 96.338 60.645 Q 96.826 60.059 97.339 59.546 A 10.954 10.954 0 0 1 98.424 58.598 A 11.984 11.984 0 0 1 98.462 58.569 Q 99.072 58.105 99.902 57.52 Q 100.104 57.385 100.363 57.205 A 47.414 47.414 0 0 0 100.61 57.031 A 9.486 9.486 0 0 0 101.233 56.551 A 10.797 10.797 0 0 0 101.441 56.372 A 6.607 6.607 0 0 0 101.863 55.966 A 5.15 5.15 0 0 0 102.149 55.64 Q 102.362 55.372 102.42 55.118 A 0.84 0.84 0 0 0 102.442 54.932 A 3.271 3.271 0 0 0 102.319 54.053 A 3.271 3.271 0 0 1 102.197 53.174 A 4.058 4.058 0 0 1 102.218 52.78 Q 102.252 52.429 102.344 52.002 A 5.527 5.527 0 0 1 102.808 50.684 A 3.803 3.803 0 0 1 103.211 50.039 A 3.126 3.126 0 0 1 103.589 49.634 A 1.619 1.619 0 0 1 104.569 49.225 A 2.124 2.124 0 0 1 104.736 49.219 A 2.504 2.504 0 0 1 105.609 49.38 A 2.99 2.99 0 0 1 105.811 49.463 Q 106.348 49.707 106.787 50.049 Q 106.885 49.561 106.885 49.316 A 1.571 1.571 0 0 0 106.85 48.974 Q 106.806 48.775 106.704 48.636 A 0.744 0.744 0 0 0 106.299 48.364 A 5.455 5.455 0 0 0 105.614 48.214 A 7.209 7.209 0 0 0 104.981 48.145 A 20.538 20.538 0 0 1 103.54 47.998 A 1.338 1.338 0 0 1 103.11 47.869 Q 102.771 47.695 102.609 47.317 A 1.434 1.434 0 0 1 102.588 47.266 Z M 39.258 41.064 L 38.574 39.697 A 17.952 17.952 0 0 0 37.909 39.262 Q 37.581 39.059 37.286 38.899 A 8.482 8.482 0 0 0 36.939 38.721 Q 36.231 38.379 35.108 38.281 Q 34.131 38.184 33.179 37.891 A 6.686 6.686 0 0 0 31.201 37.598 A 0.903 0.903 0 0 0 30.888 37.65 A 0.781 0.781 0 0 0 30.518 37.939 A 2.297 2.297 0 0 1 30.423 38.064 Q 30.276 38.242 30.171 38.274 A 0.151 0.151 0 0 1 30.127 38.281 Q 29.894 38.281 29.599 38.204 A 3.476 3.476 0 0 1 29.443 38.159 A 25.019 25.019 0 0 0 29.041 38.037 A 29.433 29.433 0 0 0 28.613 37.915 A 68.719 68.719 0 0 0 27.71 37.671 A 3.967 3.967 0 0 0 27.278 37.581 A 2.908 2.908 0 0 0 26.856 37.549 Q 24.658 37.549 22.583 38.013 A 140.633 140.633 0 0 0 18.408 39.014 A 29.945 29.945 0 0 0 17.953 40.3 A 37.443 37.443 0 0 0 17.651 41.26 A 39.841 39.841 0 0 0 16.992 43.75 A 35.979 35.979 0 0 0 16.504 46.265 A 16.688 16.688 0 0 0 16.346 47.611 A 13.123 13.123 0 0 0 16.309 48.584 Q 16.309 49.109 16.402 49.424 A 1.424 1.424 0 0 0 16.406 49.438 Q 16.504 49.756 16.65 50 A 3.5 3.5 0 0 1 16.853 50.389 A 3.116 3.116 0 0 1 16.895 50.488 A 1.28 1.28 0 0 1 16.965 50.739 Q 16.987 50.861 16.991 51.002 A 2.284 2.284 0 0 1 16.992 51.074 A 17.726 17.726 0 0 1 16.577 54.907 A 17.726 17.726 0 0 0 16.162 58.74 A 8.675 8.675 0 0 0 16.504 61.182 Q 16.846 62.354 17.676 63.33 A 4.776 4.776 0 0 1 19.531 63.696 A 4.776 4.776 0 0 0 21.387 64.063 A 2.83 2.83 0 0 0 22.544 63.81 A 3.376 3.376 0 0 0 22.73 63.721 A 4.891 4.891 0 0 1 23.07 63.559 Q 23.496 63.379 23.779 63.379 A 0.708 0.708 0 0 1 24.103 63.452 Q 24.245 63.523 24.352 63.666 A 0.947 0.947 0 0 1 24.39 63.721 Q 24.595 64.039 25.075 64.061 A 1.59 1.59 0 0 0 25.147 64.063 L 25.342 64.063 A 0.79 0.79 0 0 1 25.508 63.87 Q 25.652 63.747 25.879 63.647 Q 26.27 63.477 26.782 63.403 A 10.285 10.285 0 0 1 27.452 63.331 A 12.389 12.389 0 0 1 27.881 63.306 A 27.918 27.918 0 0 1 28.732 63.283 A 24.446 24.446 0 0 1 29.004 63.281 Q 30.029 63.281 30.591 63.33 Q 31.152 63.379 31.885 63.379 A 34.629 34.629 0 0 0 35.324 62.46 A 31.375 31.375 0 0 0 35.791 62.305 A 24.066 24.066 0 0 0 38.075 61.381 A 28.192 28.192 0 0 0 38.989 60.938 A 9.718 9.718 0 0 0 40.28 60.159 Q 41.029 59.618 41.553 58.984 Q 41.927 58.611 42.372 58.094 A 26.317 26.317 0 0 0 42.651 57.764 A 14.872 14.872 0 0 0 43.775 56.226 Q 44.287 55.42 44.653 54.565 A 4.581 4.581 0 0 0 44.959 53.559 A 3.884 3.884 0 0 0 45.02 52.881 A 10.434 10.434 0 0 0 44.702 50.342 Q 44.385 49.072 44.19 47.803 A 65.44 65.44 0 0 0 44.118 47.247 Q 44.045 46.706 43.98 46.295 A 19.731 19.731 0 0 0 43.921 45.947 Q 43.799 45.264 43.53 44.751 A 3.72 3.72 0 0 0 43.146 44.166 A 4.878 4.878 0 0 0 42.774 43.75 A 12.031 12.031 0 0 0 42.502 43.488 Q 42.194 43.198 41.768 42.831 A 42.648 42.648 0 0 0 41.358 42.48 Q 41.157 41.598 40.94 41.308 A 0.463 0.463 0 0 0 40.845 41.211 A 1.07 1.07 0 0 0 40.588 41.071 A 0.869 0.869 0 0 0 40.283 41.016 A 5.451 5.451 0 0 0 39.912 41.029 A 6.325 6.325 0 0 0 39.771 41.04 A 5.914 5.914 0 0 1 39.397 41.063 A 5.093 5.093 0 0 1 39.258 41.064 Z M 43.408 20.264 A 4.894 4.894 0 0 0 43.384 19.795 Q 43.362 19.566 43.32 19.311 A 9.585 9.585 0 0 0 43.262 18.994 A 27.71 27.71 0 0 0 42.92 17.505 L 42.529 15.991 Q 42.362 15.341 42.266 14.817 A 11.036 11.036 0 0 1 42.236 14.648 A 4.721 4.721 0 0 0 42.1 14.117 Q 41.975 13.735 41.797 13.452 A 3.31 3.31 0 0 0 41.325 12.861 A 2.943 2.943 0 0 0 41.113 12.671 A 9.396 9.396 0 0 0 40.615 12.294 A 11.689 11.689 0 0 0 40.234 12.036 A 7.459 7.459 0 0 1 39.578 11.555 A 8.949 8.949 0 0 1 39.258 11.279 A 16.991 16.991 0 0 0 38.135 10.369 Q 37.589 9.965 37.064 9.657 A 10.184 10.184 0 0 0 36.914 9.57 A 10.504 10.504 0 0 0 34.57 8.594 A 13.978 13.978 0 0 0 32.49 8.183 A 15.84 15.84 0 0 0 31.983 8.13 A 29.66 29.66 0 0 0 30.542 8.038 A 39.445 39.445 0 0 0 28.955 8.008 A 51.645 51.645 0 0 0 27.019 8.045 A 57.069 57.069 0 0 0 26.733 8.057 A 11.24 11.24 0 0 0 25.641 8.154 A 8.568 8.568 0 0 0 24.658 8.35 Q 24.463 8.447 24.414 8.594 A 0.499 0.499 0 0 1 24.351 8.717 Q 24.316 8.769 24.265 8.821 A 1.109 1.109 0 0 1 24.194 8.887 Q 24.055 9.006 23.736 9.11 A 3.734 3.734 0 0 1 23.584 9.155 Q 23.222 9.256 22.527 9.274 A 12.233 12.233 0 0 1 22.217 9.277 Q 20.801 9.277 19.898 9.668 A 3.684 3.684 0 0 0 19.059 10.164 A 3.072 3.072 0 0 0 18.482 10.767 A 3.929 3.929 0 0 0 17.95 11.808 A 5.058 5.058 0 0 0 17.774 12.476 A 12.643 12.643 0 0 0 17.615 13.543 Q 17.554 14.111 17.529 14.746 A 206.455 206.455 0 0 0 17.459 17.853 A 225.557 225.557 0 0 0 17.456 18.066 Q 17.432 19.775 17.285 21.46 A 24.387 24.387 0 0 1 16.773 24.756 A 13.144 13.144 0 0 1 15.625 27.881 Q 18.359 28.564 21.192 28.955 Q 24.024 29.346 26.758 29.346 A 50.598 50.598 0 0 0 30.591 29.199 A 35.868 35.868 0 0 0 34.375 28.711 Q 35.059 28.564 36.206 28.174 Q 37.354 27.783 38.452 27.197 A 11.315 11.315 0 0 0 39.847 26.322 A 9.757 9.757 0 0 0 40.405 25.879 A 3.819 3.819 0 0 0 40.866 25.416 Q 41.29 24.902 41.358 24.365 Q 41.455 23.779 41.773 23.291 Q 42.09 22.803 42.456 22.339 A 9.056 9.056 0 0 0 43.115 21.387 A 2.058 2.058 0 0 0 43.394 20.534 A 2.559 2.559 0 0 0 43.408 20.264 Z M 129.102 66.992 A 1.257 1.257 0 0 0 129.078 66.739 Q 129.047 66.589 128.976 66.474 A 0.654 0.654 0 0 0 128.858 66.333 A 1.359 1.359 0 0 0 128.465 66.089 A 1.736 1.736 0 0 0 128.247 66.016 Q 127.881 65.918 127.515 65.796 A 1.456 1.456 0 0 1 127.245 65.677 Q 127.069 65.575 126.953 65.43 A 2.656 2.656 0 0 0 126.911 65.568 Q 126.893 65.635 126.88 65.696 A 1.559 1.559 0 0 0 126.88 65.698 A 1.233 1.233 0 0 0 126.86 65.843 A 1.576 1.576 0 0 0 126.856 65.967 A 1.257 1.257 0 0 0 126.879 66.22 Q 126.91 66.37 126.981 66.485 A 0.654 0.654 0 0 0 127.1 66.626 A 1.359 1.359 0 0 0 127.492 66.87 A 1.736 1.736 0 0 0 127.71 66.943 Q 128.076 67.041 128.418 67.163 A 1.557 1.557 0 0 1 129.004 67.529 A 2.656 2.656 0 0 0 129.046 67.391 Q 129.065 67.324 129.077 67.263 A 1.559 1.559 0 0 0 129.077 67.261 A 1.233 1.233 0 0 0 129.097 67.116 A 1.576 1.576 0 0 0 129.102 66.992 Z" vector-effect="non-scaling-stroke"/></g></svg>