<svg xmlns="http://www.w3.org/2000/svg" viewBox="0 0 261.58 8.49"><defs><style>.cls-1{fill:#e82276;}</style></defs><g id="Layer_2" data-name="Layer 2"><g id="Layer_1-2" data-name="Layer 1"><path class="cls-1" d="M1.81,8.49q30.74-.66,61.46-1.95c17-.7,34-1.49,51-2.08C128,4,141.64,3.7,155.36,3.87c12.94.16,25.87.52,38.82.65q28.31.29,56.6-.51l9-.26c2.41-.07,2.42-3.82,0-3.75-20,.61-39.95.94-59.93.82C186.47.73,173.1.4,159.73.18q-19.35-.3-38.66.31c-17.17.54-34.33,1.31-51.5,2q-29.37,1.26-58.76,2l-9,.21c-2.41,0-2.42,3.8,0,3.75Z"/></g></g></svg>